<svg id="svg" version="1.1" xmlns="http://www.w3.org/2000/svg" xmlns:xlink="http://www.w3.org/1999/xlink" width="400" height="156.5" viewBox="0, 0, 400,156.5"><g id="svgg"><path id="path0" d="M196.687 13.993 C 195.367 14.526,193.585 16.975,192.951 19.127 C 192.239 21.545,190.922 46.203,191.287 50.297 L 191.603 53.845 187.726 54.172 C 185.594 54.353,182.972 54.500,181.899 54.500 L 179.950 54.500 180.051 52.125 C 180.257 47.283,179.016 44.524,176.625 44.508 C 175.962 44.503,175.500 44.192,175.500 43.750 C 175.500 43.337,175.275 43.000,175.000 43.000 C 174.725 43.000,174.500 42.419,174.500 41.708 C 174.500 39.855,173.358 40.453,172.858 42.568 C 172.533 43.942,172.110 44.407,170.848 44.779 C 168.894 45.355,168.073 47.379,168.021 51.750 C 168.001 53.400,167.819 55.008,167.617 55.323 C 167.376 55.699,158.564 56.529,142.021 57.735 C 112.152 59.912,112.000 59.953,112.000 65.775 C 112.000 72.921,114.439 73.821,145.844 78.265 C 158.718 80.086,169.380 81.728,169.540 81.913 C 169.699 82.098,170.578 84.227,171.494 86.644 C 173.780 92.680,174.019 92.699,176.020 87.000 C 177.566 82.599,177.071 82.768,184.698 84.028 L 191.500 85.151 191.509 87.201 C 191.515 88.328,191.738 95.645,192.007 103.461 C 192.275 111.277,192.393 117.774,192.267 117.899 C 191.290 118.876,171.234 123.401,170.858 122.729 C 169.700 120.658,168.811 130.130,169.814 133.869 C 170.222 135.392,171.000 134.787,171.000 132.948 L 171.000 131.454 173.350 133.249 L 175.700 135.043 184.225 134.895 C 188.914 134.814,193.088 134.583,193.500 134.381 C 194.038 134.119,194.462 134.473,195.000 135.633 C 196.233 138.292,200.134 138.205,200.674 135.506 C 200.968 134.036,202.119 133.478,202.750 134.500 C 202.936 134.802,206.435 135.000,211.570 135.000 L 220.082 135.000 222.257 133.218 L 224.432 131.435 224.591 133.093 C 224.947 136.805,225.758 134.198,225.892 128.908 C 226.051 122.654,225.837 121.355,224.861 122.672 C 224.310 123.416,204.304 118.970,203.189 117.855 C 203.058 117.725,203.186 112.698,203.472 106.684 C 203.759 100.670,203.995 93.365,203.997 90.451 L 204.000 85.151 210.802 84.028 C 218.466 82.762,218.000 82.597,219.466 87.087 C 221.350 92.854,221.821 92.746,224.242 86.000 L 225.766 81.750 246.758 78.702 C 276.812 74.337,280.310 73.477,282.485 69.909 C 284.451 66.684,283.608 62.085,280.749 60.445 C 279.508 59.733,235.833 55.986,228.922 55.998 C 228.306 56.000,228.022 55.391,227.814 53.625 C 227.660 52.319,227.392 50.063,227.218 48.612 C 226.868 45.684,226.015 44.500,224.258 44.500 C 223.282 44.500,223.032 44.167,222.750 42.500 C 222.376 40.285,221.000 39.662,221.000 41.708 C 221.000 42.373,220.719 43.011,220.375 43.127 C 219.888 43.291,219.901 43.521,220.436 44.169 C 221.056 44.919,220.932 45.000,219.161 45.000 C 216.776 45.000,216.000 45.692,216.000 47.820 C 216.000 48.712,215.781 49.577,215.513 49.742 C 215.233 49.915,215.160 51.026,215.341 52.345 L 215.656 54.647 210.207 54.282 C 204.341 53.889,203.817 53.623,204.236 51.250 C 204.951 47.193,205.098 43.620,204.563 43.289 C 204.195 43.061,204.000 40.806,204.000 36.773 C 204.000 23.893,202.750 17.141,199.926 14.764 C 198.282 13.381,198.231 13.369,196.687 13.993 " stroke="none" fill="#000000" fill-rule="evenodd"></path></g></svg>