<svg id="svg" version="1.1" xmlns="http://www.w3.org/2000/svg" xmlns:xlink="http://www.w3.org/1999/xlink" width="400" height="218" viewBox="0, 0, 400,218"><g id="svgg"><path id="path0" d="M198.927 17.893 C 196.675 18.171,196.000 19.532,194.748 26.327 C 191.862 41.988,190.917 50.024,190.635 61.309 L 190.359 72.369 187.054 72.681 C 185.237 72.852,182.906 72.994,181.875 72.996 L 180.000 73.000 180.000 65.850 C 180.000 57.756,179.895 57.500,176.589 57.500 C 174.784 57.500,174.481 57.375,174.941 56.822 C 175.625 55.997,175.153 53.249,174.190 52.450 C 173.637 51.992,173.351 52.235,172.750 53.673 C 171.873 55.771,171.809 56.500,172.500 56.500 C 172.775 56.500,173.000 56.725,173.000 57.000 C 173.000 57.275,171.883 57.500,170.518 57.500 C 167.396 57.500,166.739 58.452,167.194 62.321 C 167.698 66.610,167.014 73.434,166.052 73.705 C 165.611 73.830,160.356 74.087,154.375 74.277 L 143.500 74.622 143.500 68.161 C 143.500 60.800,143.366 60.504,140.025 60.492 C 138.593 60.488,137.997 60.328,138.416 60.062 C 139.119 59.617,138.276 55.500,137.482 55.500 C 136.277 55.500,135.085 59.429,136.096 60.070 C 136.500 60.326,135.889 60.491,134.500 60.500 C 130.821 60.525,130.799 60.572,130.708 68.239 C 130.664 71.979,130.538 75.129,130.429 75.238 C 130.319 75.348,116.378 76.104,99.448 76.918 L 68.667 78.399 66.095 79.702 C 59.162 83.215,61.583 89.269,71.357 92.856 C 74.332 93.948,81.856 94.888,132.392 100.484 C 164.094 103.994,190.183 107.017,190.367 107.200 C 190.644 107.477,193.884 155.716,193.972 160.875 L 194.000 162.500 181.058 162.500 C 168.537 162.500,168.108 162.468,167.855 161.500 C 167.711 160.950,167.348 160.500,167.047 160.500 C 166.451 160.500,166.252 180.273,166.826 182.417 C 167.269 184.072,167.973 182.803,168.027 180.250 C 168.079 177.828,168.907 175.421,168.965 177.524 C 168.987 178.308,169.728 179.508,170.896 180.649 L 172.792 182.500 184.356 182.500 L 195.921 182.500 196.251 184.005 C 197.112 187.925,201.930 188.416,203.552 184.750 L 204.547 182.500 215.922 182.500 L 227.297 182.500 229.149 180.604 C 230.167 179.561,231.000 178.211,231.000 177.604 C 231.000 176.997,231.225 176.500,231.500 176.500 C 231.775 176.500,232.003 177.681,232.008 179.125 C 232.016 181.963,232.706 183.848,233.234 182.473 C 233.808 180.977,233.282 160.843,232.664 160.637 C 232.341 160.530,232.004 160.962,231.914 161.596 L 231.750 162.750 219.000 162.568 C 211.988 162.468,206.188 162.331,206.113 162.264 C 205.871 162.050,209.415 107.418,209.688 107.145 C 209.832 107.001,235.893 104.004,267.600 100.484 C 306.180 96.202,326.136 93.793,327.928 93.200 C 338.292 89.771,341.103 83.060,333.680 79.466 C 331.778 78.545,286.047 75.668,270.875 75.514 L 269.500 75.500 269.500 68.786 C 269.500 60.957,269.287 60.504,265.589 60.492 C 263.996 60.487,263.478 60.340,263.966 60.032 C 264.864 59.463,263.812 55.313,262.851 55.633 C 261.763 55.996,260.716 59.514,261.541 60.036 C 262.026 60.343,261.591 60.487,260.161 60.492 C 256.782 60.505,256.500 61.110,256.500 68.347 L 256.500 74.622 245.625 74.277 C 239.644 74.087,234.389 73.830,233.948 73.706 C 232.984 73.433,232.348 67.105,232.825 62.540 C 233.254 58.436,232.633 57.500,229.482 57.500 C 227.209 57.500,226.146 56.868,227.602 56.383 C 228.315 56.145,227.086 52.449,226.252 52.325 C 225.408 52.198,224.389 56.013,225.053 56.814 C 225.521 57.378,225.228 57.500,223.411 57.500 C 220.105 57.500,220.000 57.756,220.000 65.850 L 220.000 73.000 218.125 72.996 C 217.094 72.994,214.761 72.852,212.941 72.680 L 209.632 72.368 209.358 60.809 C 209.088 49.417,207.786 37.942,205.267 24.750 C 204.183 19.068,202.668 17.431,198.927 17.893 " stroke="none" fill="#000000" fill-rule="evenodd"></path></g></svg>