<svg id="svg" version="1.1" xmlns="http://www.w3.org/2000/svg" xmlns:xlink="http://www.w3.org/1999/xlink" width="400" height="330.26634382566584" viewBox="0, 0, 400,330.26634382566584"><g id="svgg"><path id="path0" d="M196.569 2.514 C 194.459 5.165,192.708 8.629,190.778 13.969 C 189.435 17.682,189.453 17.675,184.654 16.764 C 177.105 15.332,148.805 12.843,147.969 13.537 C 146.725 14.569,147.109 15.432,149.031 15.927 C 175.477 22.735,181.492 23.778,186.738 22.461 C 187.922 22.164,187.981 22.230,187.695 23.542 C 187.527 24.311,187.302 25.593,187.195 26.392 C 187.087 27.191,186.659 29.762,186.243 32.105 C 185.827 34.448,185.268 38.915,185.000 42.032 C 184.733 45.149,184.286 50.315,184.008 53.511 C 183.731 56.707,183.529 59.758,183.560 60.291 C 183.591 60.823,183.387 66.271,183.106 72.397 C 182.826 78.523,182.531 85.932,182.450 88.862 C 182.289 94.761,181.308 97.422,178.537 99.473 C 176.613 100.897,166.038 101.171,76.271 102.126 C 3.271 102.902,8.430 102.518,4.541 107.468 C -1.395 115.022,-1.112 122.115,5.544 132.650 C 12.524 143.697,15.047 144.714,61.505 155.203 C 85.490 160.618,83.777 160.169,83.777 161.050 C 83.777 161.693,84.155 161.790,87.421 161.979 C 87.961 162.010,88.669 162.201,88.995 162.402 C 89.321 162.604,89.588 162.653,89.588 162.510 C 89.588 162.368,90.133 162.459,90.799 162.712 C 91.751 163.074,92.010 163.020,92.010 162.458 C 92.010 161.547,88.112 160.782,122.851 168.507 C 179.667 181.140,178.258 180.674,181.518 187.895 C 185.688 197.130,186.333 200.538,189.355 229.298 C 191.558 250.266,193.123 264.430,193.485 266.665 C 193.713 268.076,193.607 268.225,192.145 268.545 C 188.983 269.236,139.143 286.553,136.015 288.048 C 129.089 291.357,126.713 296.369,128.382 304.149 C 130.827 315.551,138.558 319.497,162.541 321.581 C 177.741 322.901,181.979 322.184,187.737 317.317 C 193.182 312.714,194.595 310.816,196.414 305.663 C 197.132 303.630,197.567 302.873,197.582 303.632 C 197.595 304.298,197.929 308.765,198.324 313.559 C 198.720 318.354,199.182 324.074,199.351 326.271 C 199.745 331.367,200.255 331.367,200.649 326.271 C 200.818 324.074,201.280 318.354,201.676 313.559 C 202.071 308.765,202.405 304.298,202.418 303.632 C 202.433 302.873,202.868 303.630,203.586 305.663 C 205.405 310.816,206.818 312.714,212.263 317.317 C 218.021 322.184,222.259 322.901,237.459 321.581 C 261.442 319.497,269.173 315.551,271.618 304.149 C 273.287 296.369,270.911 291.357,263.985 288.048 C 260.857 286.553,211.017 269.236,207.855 268.545 C 206.393 268.225,206.287 268.076,206.515 266.665 C 206.877 264.430,208.442 250.266,210.645 229.298 C 213.240 204.598,213.687 201.524,215.503 195.884 C 218.411 186.849,220.614 182.991,223.823 181.314 C 228.006 179.129,300.842 162.794,309.201 162.166 C 316.658 161.607,316.223 161.681,316.223 160.969 C 316.223 160.181,314.682 160.579,338.495 155.203 C 384.626 144.788,386.954 143.869,393.995 133.300 C 401.083 122.661,401.508 115.165,395.459 107.468 C 391.757 102.756,394.309 103.076,356.691 102.605 C 231.813 101.040,223.313 100.843,221.462 99.473 C 218.348 97.166,217.709 95.034,217.341 85.714 C 217.157 81.053,216.881 76.259,216.727 75.061 C 216.573 73.862,216.367 68.959,216.269 64.165 C 215.983 50.177,215.001 38.287,213.500 30.611 C 213.224 29.203,212.932 27.331,212.850 26.451 C 212.768 25.571,212.558 24.195,212.382 23.394 L 212.062 21.938 216.321 21.657 C 218.664 21.502,224.504 20.496,229.298 19.422 C 234.092 18.348,241.174 16.904,245.036 16.214 C 252.657 14.851,253.539 14.637,253.150 14.248 C 252.686 13.783,220.098 16.622,214.265 17.635 L 210.854 18.227 208.539 12.241 C 204.023 0.568,200.436 -2.346,196.569 2.514 " stroke="none" fill="#000000" fill-rule="evenodd"></path></g></svg>