<svg id="svg" version="1.1" xmlns="http://www.w3.org/2000/svg" xmlns:xlink="http://www.w3.org/1999/xlink" width="400" height="400" viewBox="0, 0, 400,400"><g id="svgg"><path id="path0" d="M60.889 26.222 C 56.692 30.419,91.552 67.985,160.446 133.508 C 170.568 143.135,170.864 143.593,169.989 148.258 C 169.019 153.427,158.667 158.548,158.667 153.858 C 158.667 149.796,145.573 151.467,145.089 155.591 C 144.689 158.995,143.866 159.383,129.355 163.014 C 120.934 165.121,113.871 167.017,113.660 167.228 C 113.359 167.530,109.343 188.984,109.335 190.333 C 109.334 190.517,117.433 190.667,127.333 190.667 C 138.444 190.667,145.333 191.177,145.333 192.000 C 145.333 192.733,148.333 193.333,152.000 193.333 C 155.667 193.333,158.667 192.733,158.667 192.000 C 158.667 191.267,161.067 190.667,164.000 190.667 C 173.471 190.667,170.766 193.894,113.334 251.137 C 82.540 281.829,57.678 307.479,58.085 308.137 C 61.582 313.795,85.953 291.695,150.528 224.311 L 172.590 201.289 175.568 206.978 C 177.206 210.107,178.573 213.974,178.606 215.571 C 178.640 217.169,179.567 219.376,180.667 220.476 C 181.863 221.672,182.667 224.933,182.667 228.590 C 182.667 234.529,183.982 238.157,187.902 243.032 C 189.360 244.844,189.438 245.762,188.235 246.965 C 185.975 249.225,186.193 266.585,188.516 269.228 C 189.841 270.737,190.528 276.707,190.939 290.288 L 191.513 309.243 185.423 310.050 C 169.020 312.224,169.105 312.184,167.163 318.681 C 166.179 321.973,165.365 324.817,165.354 325.000 C 165.342 325.183,171.297 325.333,178.585 325.333 L 191.837 325.333 192.670 331.000 C 193.128 334.117,193.282 340.867,193.013 346.000 C 192.531 355.163,192.517 355.115,192.214 343.333 C 191.839 328.727,188.132 331.396,188.047 346.333 C 188.021 350.969,187.408 354.667,186.667 354.667 C 185.933 354.667,185.333 356.467,185.333 358.667 C 185.333 360.867,185.933 362.667,186.667 362.667 C 187.450 362.667,188.019 367.476,188.047 374.333 C 188.091 385.124,188.238 385.750,190.000 382.667 C 191.073 380.789,191.926 375.694,191.953 371.000 C 191.990 364.502,192.441 362.667,194.000 362.667 C 195.431 362.667,196.000 364.125,196.000 367.793 C 196.000 371.076,196.881 373.718,198.450 375.137 C 202.269 378.593,205.333 374.365,205.333 365.640 C 205.333 361.891,205.933 358.453,206.667 358.000 C 207.400 357.547,208.000 351.886,208.000 345.421 C 208.000 338.956,208.375 331.792,208.833 329.500 L 209.667 325.333 222.833 325.333 C 230.075 325.333,235.991 325.183,235.980 325.000 C 235.969 324.817,235.154 321.973,234.170 318.681 C 232.228 312.184,232.313 312.224,215.910 310.050 L 209.820 309.243 210.394 290.288 C 210.806 276.707,211.493 270.737,212.818 269.228 C 215.140 266.585,215.359 249.225,213.098 246.965 C 211.896 245.762,211.974 244.844,213.432 243.032 C 217.352 238.157,218.667 234.529,218.667 228.590 C 218.667 224.933,219.470 221.672,220.667 220.476 C 221.767 219.376,222.694 217.169,222.727 215.571 C 222.760 213.974,224.115 210.130,225.738 207.031 L 228.690 201.394 283.816 256.691 C 314.135 287.104,339.480 311.655,340.137 311.248 C 345.810 307.742,323.842 283.539,255.667 218.183 C 230.468 194.027,228.229 190.667,237.333 190.667 C 240.267 190.667,242.667 191.267,242.667 192.000 C 242.667 192.733,245.667 193.333,249.333 193.333 C 253.000 193.333,256.000 192.733,256.000 192.000 C 256.000 191.175,263.111 190.667,274.667 190.667 C 284.933 190.667,293.333 190.517,293.332 190.333 C 293.323 188.849,289.292 167.514,288.956 167.178 C 288.718 166.940,281.355 165.005,272.595 162.879 C 257.552 159.228,256.643 158.818,256.245 155.506 C 255.757 151.455,242.667 149.866,242.667 153.858 C 242.667 158.510,232.316 153.434,231.355 148.311 L 230.461 143.550 287.950 86.050 C 319.569 54.425,345.015 28.126,344.497 27.608 C 340.190 23.301,336.927 26.102,283.773 79.740 L 231.179 132.814 228.861 129.740 C 227.585 128.050,225.743 126.667,224.766 126.667 C 223.408 126.667,222.770 122.028,222.060 107.000 C 221.117 87.038,218.168 72.421,213.664 65.378 C 212.507 63.570,211.424 60.351,211.257 58.225 C 210.273 45.722,191.060 45.722,190.077 58.225 C 189.909 60.351,188.826 63.570,187.670 65.378 C 183.165 72.421,180.217 87.038,179.274 107.000 C 178.573 121.824,177.915 126.667,176.602 126.667 C 175.644 126.667,173.723 128.112,172.334 129.878 L 169.808 133.090 116.092 79.212 C 86.549 49.579,62.242 25.333,62.077 25.333 C 61.913 25.333,61.378 25.733,60.889 26.222 " stroke="none" fill="#000000" fill-rule="evenodd"></path></g></svg>