<svg id="svg" version="1.1" xmlns="http://www.w3.org/2000/svg" xmlns:xlink="http://www.w3.org/1999/xlink" width="400" height="640" viewBox="0, 0, 400,640"><g id="svgg"><path id="path0" d="M206.827 14.261 C 201.305 18.523,197.145 34.297,193.775 63.750 C 193.552 65.698,191.307 83.698,188.786 103.750 C 183.674 144.400,184.131 138.182,183.324 178.125 C 182.609 213.527,182.472 219.917,182.068 236.667 C 181.850 245.719,181.670 254.391,181.669 255.938 C 181.667 258.071,181.526 258.750,181.082 258.750 C 180.480 258.750,179.583 256.718,179.583 255.354 C 179.583 254.022,179.137 254.396,170.946 262.604 L 162.941 270.625 162.079 274.375 L 161.216 278.125 155.930 280.888 L 150.644 283.651 148.229 296.722 C 146.901 303.910,144.587 316.448,143.088 324.583 C 141.588 332.719,140.260 339.795,140.136 340.309 C 139.997 340.887,138.935 341.831,137.351 342.785 C 132.703 345.583,94.466 368.799,89.792 371.661 C 87.271 373.204,82.115 376.339,78.333 378.628 C 67.153 385.395,50.353 395.600,42.030 400.679 C 37.762 403.285,34.058 405.417,33.801 405.417 C 33.469 405.417,33.333 402.724,33.333 396.146 C 33.333 391.047,33.208 376.328,33.056 363.438 L 32.780 340.000 30.585 340.000 C 28.849 340.000,28.347 340.153,28.187 340.729 C 27.617 342.777,25.808 426.233,25.827 449.601 L 25.833 457.743 27.656 459.532 L 29.478 461.320 29.725 459.514 C 29.860 458.521,30.373 454.146,30.864 449.792 C 31.354 445.438,31.807 441.819,31.870 441.751 C 31.933 441.682,36.366 442.010,41.722 442.478 C 51.453 443.330,131.966 450.071,151.250 451.648 C 156.865 452.108,162.213 452.586,163.135 452.711 L 164.812 452.940 166.602 482.199 C 167.587 498.292,168.496 512.500,168.622 513.773 L 168.852 516.087 150.572 527.103 C 140.518 533.162,126.479 541.620,119.375 545.899 L 106.458 553.679 106.458 564.230 L 106.458 574.780 128.542 576.742 C 140.688 577.821,155.500 579.137,161.458 579.667 L 172.292 580.630 172.153 583.336 C 172.077 584.824,171.792 589.736,171.520 594.252 L 171.025 602.463 173.422 606.127 L 175.819 609.792 175.826 618.655 L 175.833 627.518 177.765 628.743 C 183.523 632.395,192.407 631.732,196.818 627.321 L 198.342 625.797 199.692 626.818 C 205.815 631.446,212.128 632.090,217.787 628.664 C 220.270 627.160,219.956 628.517,220.888 615.288 L 221.381 608.285 224.245 605.521 L 227.108 602.756 226.991 591.287 L 226.875 579.818 233.958 579.117 C 237.854 578.731,245.260 578.001,250.417 577.493 C 255.573 576.986,266.635 575.883,275.000 575.041 L 290.208 573.511 290.320 563.078 L 290.431 552.645 286.570 550.150 C 284.446 548.777,280.210 546.072,277.157 544.139 C 274.103 542.206,269.884 539.523,267.782 538.175 C 265.679 536.828,262.875 535.046,261.552 534.217 C 236.457 518.486,232.932 516.077,232.924 514.656 C 232.920 513.895,233.671 503.863,234.593 492.365 C 236.174 472.631,237.481 455.217,237.494 453.687 C 237.501 452.870,237.894 452.818,252.708 451.664 C 258.438 451.218,265.469 450.661,268.333 450.426 C 271.198 450.192,288.542 448.876,306.875 447.503 C 325.208 446.130,345.118 444.630,351.119 444.170 C 357.119 443.710,362.763 443.333,363.660 443.333 L 365.291 443.333 366.717 451.979 L 368.142 460.625 369.464 460.754 C 370.674 460.872,370.804 460.766,370.999 459.504 C 371.839 454.062,372.083 439.255,372.083 393.739 L 372.083 343.119 370.271 343.263 L 368.458 343.407 367.146 351.003 L 365.833 358.598 365.833 383.510 C 365.833 403.839,365.733 408.384,365.289 408.214 C 364.990 408.099,358.662 404.108,351.227 399.346 C 343.792 394.584,333.115 387.750,327.500 384.160 C 321.885 380.570,310.917 373.544,303.125 368.545 C 295.333 363.547,285.865 357.486,282.083 355.077 C 263.195 343.041,265.322 344.997,264.420 338.833 C 264.027 336.152,262.771 328.052,261.628 320.833 C 260.485 313.615,258.797 302.927,257.876 297.083 C 256.955 291.240,256.115 286.158,256.009 285.791 C 255.903 285.424,253.761 283.661,251.249 281.874 C 247.190 278.986,246.651 278.457,246.415 277.125 C 245.758 273.422,240.842 266.128,234.385 259.271 C 230.095 254.716,230.000 254.687,230.000 257.917 C 230.000 260.306,229.954 260.417,228.958 260.417 L 227.917 260.417 227.881 224.688 C 227.861 205.036,227.871 175.740,227.903 159.583 C 227.975 123.232,227.714 119.715,221.250 69.792 C 220.331 62.688,218.832 50.875,217.921 43.542 C 215.707 25.731,213.951 19.356,210.029 14.889 C 208.426 13.063,208.389 13.056,206.827 14.261 " stroke="none" fill="#000000" fill-rule="evenodd"></path></g></svg>