<svg id="svg" version="1.1" xmlns="http://www.w3.org/2000/svg" xmlns:xlink="http://www.w3.org/1999/xlink" width="400" height="300" viewBox="0, 0, 400,300"><g id="svgg"><path id="path0" d="M198.504 29.429 C 197.874 30.438,197.342 30.445,197.302 29.444 C 197.276 28.785,197.217 28.802,196.919 29.556 C 196.726 30.044,196.661 30.694,196.776 31.000 C 196.890 31.306,196.739 31.556,196.440 31.556 C 196.115 31.556,195.990 31.913,196.129 32.445 C 196.257 32.934,196.180 33.222,195.959 33.085 C 195.737 32.949,195.556 33.148,195.556 33.529 C 195.556 34.721,195.507 34.872,194.907 35.556 C 194.585 35.922,194.180 36.886,194.007 37.698 C 193.828 38.542,193.474 39.090,193.180 38.977 C 192.826 38.841,192.667 39.626,192.667 41.501 C 192.667 42.998,192.502 44.343,192.301 44.491 C 192.099 44.639,191.908 45.889,191.876 47.269 C 191.844 48.649,191.636 49.778,191.415 49.778 C 191.193 49.778,191.141 50.462,191.298 51.299 C 191.476 52.249,191.393 52.937,191.077 53.132 C 190.757 53.330,190.672 54.078,190.846 55.167 C 191.032 56.329,190.955 56.889,190.610 56.889 C 190.255 56.889,190.175 57.641,190.351 59.340 C 190.502 60.803,190.437 61.689,190.191 61.536 C 189.953 61.389,189.743 62.662,189.695 64.529 C 189.649 66.316,189.582 68.578,189.544 69.556 C 189.507 70.533,189.416 75.683,189.343 81.000 C 189.269 86.317,189.060 90.667,188.879 90.667 C 188.697 90.667,188.452 91.033,188.335 91.481 C 188.197 92.011,187.365 92.499,185.950 92.880 C 184.755 93.201,183.608 93.614,183.402 93.797 C 183.195 93.980,181.845 94.023,180.402 93.892 C 178.656 93.734,177.778 93.817,177.778 94.140 C 177.778 94.424,176.994 94.601,175.889 94.567 C 172.546 94.464,163.556 95.234,163.556 95.623 C 163.556 95.830,162.956 96.000,162.222 96.000 L 160.889 96.000 160.846 90.556 C 160.822 87.561,160.837 84.361,160.880 83.444 C 160.922 82.528,160.769 81.778,160.540 81.778 C 160.295 81.778,160.215 80.045,160.344 77.563 C 160.499 74.608,160.402 73.152,160.022 72.693 C 159.723 72.333,159.627 71.799,159.808 71.506 C 160.013 71.174,159.949 71.090,159.637 71.283 C 159.335 71.470,159.025 71.146,158.854 70.463 C 158.698 69.842,158.367 69.333,158.120 69.333 C 157.870 69.333,157.929 69.020,158.250 68.633 C 158.722 68.064,158.724 67.866,158.261 67.580 C 157.948 67.386,157.661 66.699,157.623 66.054 C 157.575 65.221,157.362 64.946,156.889 65.108 C 156.505 65.239,156.589 65.052,157.085 64.668 C 157.839 64.084,157.853 64.000,157.196 64.000 C 156.783 64.000,156.444 63.791,156.444 63.536 C 156.444 63.222,160.482 63.097,168.889 63.151 C 175.733 63.195,181.333 63.404,181.333 63.616 C 181.333 63.827,181.633 64.000,182.000 64.000 C 182.367 64.000,182.667 63.788,182.667 63.529 C 182.667 63.270,182.436 63.201,182.154 63.376 C 181.836 63.572,181.761 63.498,181.958 63.180 C 182.416 62.438,183.446 62.550,183.917 63.392 C 184.238 63.965,184.389 63.768,184.635 62.458 C 185.069 60.142,185.843 60.272,170.423 60.073 C 160.484 59.945,156.429 59.747,156.392 59.391 C 156.363 59.115,156.378 58.612,156.425 58.273 C 156.482 57.869,156.257 57.755,155.771 57.941 C 155.364 58.097,154.799 58.079,154.515 57.900 C 154.203 57.703,154.526 57.460,155.333 57.284 C 156.537 57.022,156.483 56.989,154.778 56.941 C 153.128 56.896,152.889 56.762,152.889 55.883 C 152.889 55.268,152.501 54.705,151.889 54.434 C 151.332 54.187,150.918 53.635,150.956 53.188 C 150.992 52.746,150.910 52.497,150.773 52.634 C 150.392 53.016,149.244 51.170,149.553 50.671 C 149.702 50.430,149.564 50.313,149.245 50.412 C 147.004 51.110,145.998 51.126,146.863 50.451 C 147.631 49.852,147.642 49.778,146.960 49.778 C 146.055 49.778,145.549 50.828,146.059 51.645 C 146.580 52.479,146.657 53.380,146.183 53.087 C 145.960 52.949,145.778 53.148,145.778 53.529 C 145.778 53.910,146.028 54.225,146.333 54.229 C 146.755 54.234,146.748 54.325,146.304 54.607 C 145.982 54.811,145.664 55.358,145.597 55.822 C 145.506 56.454,145.045 56.703,143.763 56.810 C 142.604 56.907,142.248 57.074,142.661 57.330 C 143.549 57.879,143.640 59.116,142.768 58.781 C 142.261 58.587,142.143 58.707,142.339 59.218 C 142.581 59.851,141.201 59.941,128.971 60.097 C 115.619 60.267,113.778 60.439,113.778 61.514 C 113.778 62.513,114.748 63.099,115.624 62.630 C 116.167 62.340,116.444 62.341,116.444 62.634 C 116.444 62.917,120.768 63.084,128.410 63.096 C 134.992 63.106,140.842 63.301,141.410 63.529 C 142.180 63.838,142.245 63.951,141.667 63.972 C 141.239 63.987,140.889 64.200,140.889 64.444 C 140.889 64.689,140.677 64.889,140.418 64.889 C 140.159 64.889,140.071 64.689,140.222 64.444 C 140.373 64.200,140.085 64.000,139.582 64.000 C 138.539 64.000,138.485 64.163,139.127 65.363 C 139.471 66.005,139.442 66.224,139.016 66.229 C 138.614 66.234,138.642 66.364,139.111 66.667 C 139.478 66.904,139.613 67.101,139.413 67.104 C 139.212 67.108,139.346 67.410,139.711 67.774 C 140.299 68.363,140.266 68.636,139.416 70.187 C 138.800 71.311,138.340 71.749,138.129 71.413 C 137.792 70.877,137.713 73.434,137.613 88.222 L 137.556 96.667 136.142 97.662 C 135.109 98.389,134.368 98.585,133.389 98.389 C 132.652 98.241,130.188 98.463,127.913 98.882 C 125.639 99.300,121.878 99.651,119.556 99.662 C 117.233 99.673,115.171 99.773,114.971 99.885 C 114.772 99.996,112.681 100.170,110.323 100.270 C 107.966 100.370,105.838 100.650,105.596 100.893 C 104.970 101.519,103.557 101.439,103.549 100.778 C 103.544 100.393,103.417 100.419,103.137 100.862 C 102.807 101.384,102.432 101.410,101.108 101.004 C 99.870 100.624,99.532 100.630,99.686 101.031 C 99.827 101.398,99.305 101.509,97.944 101.400 C 96.720 101.302,96.000 101.427,96.000 101.738 C 96.000 102.060,95.419 102.141,94.333 101.968 C 93.417 101.823,90.967 102.020,88.889 102.406 C 86.811 102.793,83.611 103.125,81.778 103.144 C 78.597 103.177,69.390 103.807,66.337 104.201 C 65.432 104.318,64.646 104.138,64.225 103.718 C 63.584 103.076,63.323 103.371,63.498 104.540 C 63.524 104.714,63.247 104.743,62.884 104.603 C 62.520 104.464,61.872 104.490,61.444 104.661 C 61.017 104.833,59.164 105.046,57.328 105.135 C 55.492 105.223,52.092 105.603,49.772 105.979 C 47.453 106.355,44.806 106.664,43.889 106.665 C 42.972 106.666,42.222 106.860,42.222 107.097 C 42.222 107.334,41.922 107.413,41.556 107.272 C 41.186 107.130,40.889 107.259,40.889 107.562 C 40.889 107.984,40.731 107.978,40.200 107.537 C 39.618 107.054,39.471 107.114,39.259 107.927 C 39.121 108.456,38.831 108.889,38.615 108.889 C 37.829 108.889,37.546 109.035,37.067 109.690 C 36.799 110.058,36.351 110.217,36.073 110.045 C 35.761 109.852,35.655 109.964,35.797 110.334 C 35.924 110.665,35.722 111.669,35.347 112.565 C 34.564 114.439,34.449 117.146,35.135 117.570 C 35.392 117.729,35.526 118.089,35.432 118.370 C 35.339 118.651,35.535 119.154,35.869 119.488 C 36.311 119.930,36.345 120.251,35.994 120.674 C 35.645 121.095,35.660 121.345,36.047 121.585 C 36.409 121.808,36.465 121.727,36.222 121.333 C 35.984 120.948,36.036 120.859,36.376 121.069 C 36.658 121.243,36.889 121.686,36.889 122.052 C 36.889 122.419,37.089 122.596,37.333 122.444 C 37.578 122.293,37.778 122.375,37.778 122.626 C 37.778 122.878,38.078 122.968,38.444 122.827 C 38.920 122.645,39.113 122.872,39.118 123.619 C 39.123 124.459,39.210 124.534,39.556 124.000 C 39.793 123.633,39.989 123.562,39.993 123.841 C 39.997 124.120,40.508 124.476,41.129 124.632 C 41.750 124.787,42.171 125.059,42.065 125.235 C 41.958 125.411,42.150 125.813,42.491 126.129 C 42.997 126.596,43.112 126.596,43.118 126.129 C 43.123 125.737,43.228 125.710,43.451 126.045 C 43.939 126.774,45.739 127.632,46.193 127.351 C 46.412 127.216,46.658 127.296,46.740 127.529 C 46.822 127.762,47.566 128.071,48.395 128.216 C 49.223 128.360,50.323 128.713,50.839 128.999 C 51.355 129.286,52.028 129.469,52.333 129.407 C 52.639 129.345,52.889 129.603,52.889 129.981 C 52.889 130.782,53.398 130.869,54.083 130.183 C 54.431 129.836,54.650 129.836,54.865 130.183 C 55.029 130.449,55.564 130.667,56.052 130.667 C 56.541 130.667,56.818 130.866,56.667 131.110 C 56.487 131.402,56.775 131.408,57.514 131.127 C 58.231 130.854,58.731 130.855,58.899 131.128 C 59.045 131.363,59.962 131.556,60.937 131.556 C 61.913 131.556,63.251 131.826,63.911 132.156 C 64.571 132.486,66.398 132.784,67.971 132.819 C 69.584 132.854,70.970 133.105,71.148 133.393 C 71.322 133.675,71.885 133.795,72.399 133.661 C 72.913 133.527,73.333 133.580,73.333 133.780 C 73.333 133.980,74.483 134.248,75.889 134.375 C 82.113 134.939,83.557 135.151,85.245 135.747 C 86.232 136.095,87.464 136.269,87.983 136.133 C 88.502 135.997,88.895 136.062,88.855 136.277 C 88.623 137.543,89.012 137.707,92.777 137.919 C 93.572 137.963,94.222 138.134,94.222 138.297 C 94.222 138.574,97.946 138.782,101.189 138.685 C 101.965 138.662,102.733 138.858,102.895 139.121 C 103.102 139.456,103.379 139.442,103.822 139.074 C 104.313 138.667,104.875 138.710,106.338 139.266 C 107.374 139.659,108.672 139.862,109.222 139.717 C 109.804 139.563,110.222 139.652,110.222 139.930 C 110.222 140.193,110.772 140.399,111.444 140.386 C 113.508 140.349,117.032 140.899,117.566 141.342 C 118.028 141.726,122.804 142.292,125.222 142.250 C 125.772 142.240,126.222 142.453,126.222 142.723 C 126.222 142.996,126.618 143.111,127.111 142.982 C 127.600 142.854,128.000 142.957,128.000 143.210 C 128.000 143.497,128.666 143.563,129.778 143.385 C 130.761 143.228,131.556 143.282,131.556 143.506 C 131.556 143.729,132.206 143.934,133.000 143.961 C 135.635 144.051,136.444 144.187,136.444 144.540 C 136.444 144.732,136.833 144.889,137.307 144.889 C 137.782 144.889,138.299 145.099,138.458 145.355 C 138.655 145.673,138.944 145.656,139.373 145.300 C 139.905 144.859,140.000 145.429,140.000 149.083 C 140.000 151.602,140.170 153.281,140.411 153.132 C 140.656 152.980,140.721 154.197,140.573 156.154 C 140.416 158.237,140.497 159.535,140.795 159.720 C 141.093 159.904,141.174 161.197,141.018 163.259 C 140.865 165.284,140.961 166.859,141.272 167.440 C 141.652 168.150,141.639 168.426,141.219 168.596 C 140.796 168.766,140.794 168.827,141.208 168.854 C 141.506 168.873,141.633 169.194,141.490 169.566 C 141.323 170.002,140.735 170.213,139.837 170.158 C 138.030 170.048,136.353 170.604,136.717 171.193 C 136.874 171.447,136.737 171.819,136.412 172.020 C 135.678 172.474,135.219 180.730,135.891 181.402 C 136.155 181.666,136.196 182.464,135.993 183.365 C 135.796 184.237,135.819 184.778,136.048 184.637 C 136.266 184.502,136.444 184.916,136.444 185.556 C 136.444 186.196,136.626 186.607,136.847 186.470 C 137.069 186.333,137.146 186.621,137.018 187.110 C 136.890 187.600,136.559 188.006,136.281 188.014 C 136.004 188.021,136.119 188.226,136.536 188.469 C 136.952 188.712,137.629 190.106,138.039 191.566 C 138.448 193.027,138.964 194.222,139.185 194.222 C 139.406 194.222,139.360 194.646,139.082 195.165 C 138.787 195.717,138.765 195.992,139.029 195.829 C 139.277 195.675,139.550 195.760,139.635 196.016 C 139.721 196.273,140.345 196.542,141.024 196.614 C 142.554 196.777,143.422 197.533,142.637 198.019 C 142.251 198.257,142.194 198.172,142.447 197.735 C 142.646 197.392,142.638 197.267,142.429 197.457 C 141.833 197.999,141.806 199.073,142.393 198.847 C 142.719 198.722,142.961 199.176,143.027 200.038 C 143.085 200.805,143.328 201.797,143.566 202.242 C 144.149 203.331,144.107 203.945,143.507 203.111 C 143.108 202.557,143.072 202.581,143.291 203.259 C 143.437 203.706,143.556 205.368,143.556 206.951 C 143.556 209.014,143.701 209.740,144.069 209.513 C 144.375 209.324,144.462 209.390,144.284 209.678 C 143.898 210.302,143.803 214.432,144.160 215.011 C 144.311 215.255,144.537 218.065,144.662 221.255 C 144.787 224.445,145.062 227.517,145.274 228.083 C 145.485 228.648,145.559 230.283,145.437 231.715 C 145.311 233.188,145.404 234.443,145.651 234.604 C 145.896 234.764,145.998 236.081,145.883 237.610 L 145.679 240.332 142.894 240.617 C 141.362 240.774,139.784 240.778,139.387 240.626 C 138.907 240.442,138.667 240.587,138.667 241.064 C 138.667 241.456,138.404 241.778,138.083 241.778 C 137.052 241.778,133.739 243.577,133.998 243.997 C 134.136 244.220,133.693 244.694,133.013 245.050 C 132.334 245.406,131.823 245.814,131.878 245.957 C 132.081 246.485,131.433 248.889,131.088 248.889 C 130.606 248.889,130.709 255.710,131.195 256.034 C 131.406 256.174,131.624 256.924,131.678 257.699 C 131.733 258.475,131.897 259.110,132.043 259.110 C 132.189 259.111,132.770 259.511,133.333 260.000 C 133.897 260.489,134.183 260.889,133.969 260.889 C 133.755 260.889,134.028 261.203,134.575 261.586 C 135.123 261.969,135.452 262.474,135.308 262.708 C 135.163 262.942,135.210 263.104,135.411 263.069 C 136.546 262.872,137.807 263.204,138.480 263.877 C 139.070 264.467,140.224 264.680,143.512 264.807 C 148.298 264.992,148.368 265.014,147.508 266.075 C 147.098 266.579,147.077 266.724,147.444 266.504 C 147.839 266.266,148.000 266.553,148.000 267.493 C 148.000 269.079,148.392 270.222,148.936 270.222 C 149.155 270.222,149.336 269.772,149.340 269.222 C 149.350 267.810,150.431 264.357,150.761 264.687 C 150.912 264.838,153.702 264.951,156.962 264.938 C 160.222 264.926,182.408 264.860,206.266 264.791 L 249.642 264.667 249.589 265.778 C 249.559 266.389,249.772 267.189,250.060 267.556 C 250.349 267.922,250.677 268.722,250.788 269.333 C 250.955 270.253,251.000 270.191,251.051 268.974 C 251.086 268.119,251.297 267.618,251.556 267.778 C 251.977 268.038,252.129 267.458,252.116 265.636 C 252.111 264.905,252.480 264.840,255.944 264.969 C 258.902 265.079,259.930 264.959,260.444 264.444 C 261.211 263.678,262.295 263.575,262.771 264.222 C 262.963 264.484,263.103 264.392,263.111 264.000 C 263.139 262.641,263.864 262.000,264.643 262.647 C 265.245 263.147,265.314 263.133,265.093 262.557 C 264.930 262.132,265.425 261.300,266.407 260.346 C 267.759 259.034,268.252 258.038,268.411 256.307 C 268.430 256.109,268.644 256.071,268.889 256.222 C 269.172 256.397,269.333 255.128,269.333 252.730 C 269.333 250.559,269.141 248.899,268.879 248.812 C 268.629 248.728,268.321 248.062,268.193 247.330 C 268.066 246.599,267.670 245.778,267.314 245.507 C 266.958 245.235,266.667 244.685,266.667 244.284 C 266.667 243.613,266.138 243.344,265.168 243.521 C 264.954 243.560,264.893 243.297,265.031 242.938 C 265.208 242.476,265.033 242.331,264.439 242.445 C 263.899 242.550,263.496 242.291,263.317 241.725 C 263.093 241.021,262.909 240.948,262.407 241.364 C 261.794 241.873,261.534 241.461,261.736 240.300 C 261.771 240.099,261.602 240.056,261.360 240.206 C 259.219 241.529,253.135 240.268,254.934 238.874 C 255.544 238.401,255.579 238.289,255.062 238.467 C 254.246 238.749,253.508 235.762,254.185 234.917 C 254.703 234.270,255.688 218.502,255.316 216.808 C 255.108 215.862,255.167 215.538,255.508 215.748 C 255.851 215.960,256.030 214.866,256.097 212.137 C 256.213 207.505,256.421 202.132,256.564 200.106 C 256.629 199.191,256.863 198.732,257.200 198.861 C 257.497 198.975,257.635 198.812,257.513 198.493 C 257.238 197.777,258.461 196.709,259.103 197.106 C 259.364 197.267,259.523 197.135,259.455 196.811 C 259.388 196.487,259.642 196.243,260.020 196.269 C 260.640 196.311,260.863 195.672,261.002 193.444 C 261.021 193.139,261.188 192.889,261.371 192.889 C 261.555 192.889,261.909 192.039,262.158 191.000 C 262.407 189.961,262.831 188.235,263.099 187.164 C 263.367 186.092,263.483 185.112,263.356 184.985 C 263.229 184.858,263.447 184.519,263.841 184.231 C 264.423 183.805,264.460 183.527,264.041 182.743 C 263.704 182.114,263.684 181.778,263.984 181.778 C 264.566 181.778,264.611 174.356,264.030 174.148 C 263.802 174.067,263.515 173.100,263.391 172.000 C 263.268 170.900,263.154 169.994,263.139 169.987 C 263.124 169.979,262.149 170.014,260.973 170.063 L 258.835 170.152 258.862 165.521 C 258.877 162.974,259.063 160.890,259.277 160.890 C 259.490 160.889,259.578 159.089,259.473 156.889 C 259.368 154.689,259.456 152.889,259.668 152.889 C 259.881 152.889,260.013 151.139,259.961 149.000 L 259.868 145.111 261.490 145.111 C 262.394 145.111,263.111 144.890,263.111 144.611 C 263.111 144.321,263.901 144.110,265.000 144.107 C 267.817 144.100,271.740 143.490,272.050 143.010 C 272.312 142.606,274.304 142.352,277.915 142.264 C 278.846 142.241,279.511 142.065,279.392 141.873 C 279.273 141.681,280.207 141.479,281.466 141.424 C 282.726 141.369,284.961 141.038,286.434 140.687 C 288.849 140.112,291.289 139.714,294.111 139.433 C 294.661 139.378,295.111 139.178,295.111 138.988 C 295.111 138.692,297.265 138.609,303.864 138.653 C 304.645 138.658,305.407 138.463,305.557 138.220 C 305.707 137.977,306.827 137.778,308.045 137.778 C 309.617 137.778,310.526 137.529,311.178 136.922 C 311.684 136.451,312.336 136.157,312.628 136.269 C 312.919 136.381,313.891 136.166,314.787 135.792 C 315.683 135.417,317.622 135.111,319.097 135.111 C 320.571 135.111,321.778 134.961,321.779 134.778 C 321.780 134.594,323.000 134.382,324.491 134.305 C 325.982 134.228,327.731 133.954,328.379 133.695 C 329.026 133.437,330.056 133.176,330.667 133.116 C 333.923 132.795,336.444 132.323,336.444 132.034 C 336.444 131.854,337.476 131.684,338.737 131.655 C 339.998 131.626,341.178 131.363,341.359 131.070 C 341.540 130.777,342.003 130.658,342.387 130.805 C 343.075 131.069,345.294 130.542,346.735 129.772 C 347.307 129.466,347.532 129.621,347.744 130.467 C 348.131 132.010,348.803 131.821,348.617 130.222 C 348.485 129.085,348.611 128.889,349.475 128.889 C 350.033 128.889,350.729 128.649,351.022 128.356 C 351.437 127.941,351.557 127.965,351.562 128.467 C 351.568 128.994,351.638 129.003,351.949 128.512 C 352.158 128.183,352.835 127.883,353.455 127.845 C 354.074 127.808,354.502 127.649,354.405 127.492 C 354.307 127.334,355.065 126.870,356.088 126.461 C 357.112 126.051,358.284 125.330,358.693 124.858 C 359.103 124.386,359.776 124.000,360.189 124.000 C 360.603 124.000,360.818 123.800,360.667 123.556 C 360.516 123.311,360.618 123.111,360.894 123.111 C 361.531 123.111,362.667 121.992,362.667 121.365 C 362.667 121.103,362.867 120.889,363.111 120.889 C 363.356 120.889,363.556 120.680,363.556 120.426 C 363.556 119.995,364.007 119.335,365.121 118.135 C 365.679 117.534,365.280 113.041,364.552 111.725 C 364.266 111.207,364.158 110.657,364.312 110.503 C 364.466 110.349,364.159 110.222,363.630 110.222 C 363.027 110.222,362.667 109.945,362.667 109.481 C 362.667 109.074,362.550 108.857,362.407 109.000 C 362.265 109.143,361.769 108.880,361.306 108.417 C 360.797 107.908,360.169 107.689,359.715 107.863 C 359.165 108.074,359.063 107.992,359.333 107.556 C 359.596 107.130,359.506 107.035,359.016 107.223 C 358.639 107.368,358.150 107.306,357.930 107.085 C 357.709 106.865,356.535 106.599,355.320 106.495 C 354.105 106.391,351.711 106.096,350.000 105.839 C 348.289 105.582,344.922 105.297,342.518 105.207 C 339.797 105.104,338.024 104.843,337.822 104.515 C 337.574 104.115,337.148 104.111,336.034 104.499 C 335.035 104.848,334.481 104.863,334.286 104.549 C 334.016 104.115,331.045 103.876,326.000 103.883 C 324.778 103.885,323.674 103.724,323.547 103.526 C 323.350 103.220,317.982 102.802,311.333 102.575 C 310.356 102.542,309.442 102.346,309.303 102.140 C 309.164 101.934,306.802 101.710,304.053 101.642 C 300.717 101.560,298.945 101.339,298.721 100.976 C 298.462 100.558,298.050 100.551,296.923 100.944 C 295.865 101.312,295.377 101.318,295.159 100.966 C 294.976 100.670,292.846 100.427,289.762 100.350 C 286.960 100.280,284.564 100.087,284.439 99.923 C 284.314 99.758,281.914 99.504,279.106 99.358 C 272.469 99.013,270.590 98.845,267.184 98.292 C 265.636 98.040,264.086 97.943,263.740 98.076 C 262.955 98.377,262.886 97.070,263.667 96.699 C 263.972 96.553,263.822 96.505,263.333 96.591 C 262.472 96.743,262.443 96.488,262.388 88.263 C 262.357 83.596,262.250 78.478,262.151 76.889 C 262.052 75.300,262.097 73.391,262.251 72.647 C 262.502 71.437,262.413 71.284,261.413 71.201 C 259.983 71.083,259.989 71.091,259.917 69.174 C 259.883 68.284,259.733 67.556,259.583 67.556 C 259.433 67.556,259.388 66.732,259.484 65.725 C 259.601 64.507,259.456 63.760,259.052 63.493 C 258.684 63.249,263.349 63.118,270.889 63.158 C 283.071 63.225,286.667 62.994,286.667 62.147 C 286.667 61.915,286.833 61.828,287.037 61.954 C 287.241 62.080,287.407 61.903,287.407 61.561 C 287.407 61.218,287.291 60.959,287.148 60.984 C 287.006 61.009,286.530 60.874,286.092 60.682 C 285.653 60.491,284.615 60.445,283.785 60.579 C 282.954 60.714,282.213 60.647,282.137 60.429 C 282.062 60.212,276.700 59.997,270.222 59.952 C 259.083 59.873,255.742 59.517,256.743 58.516 C 256.905 58.354,256.825 58.222,256.566 58.222 C 256.307 58.222,255.976 57.912,255.830 57.532 C 255.651 57.064,255.742 56.949,256.116 57.173 C 256.481 57.392,256.461 57.250,256.057 56.752 C 255.721 56.338,255.596 56.000,255.778 56.000 C 255.960 56.000,255.834 55.662,255.499 55.248 C 255.143 54.809,255.109 54.628,255.418 54.813 C 255.758 55.017,255.924 54.830,255.883 54.288 C 255.832 53.619,255.494 53.456,254.243 53.500 C 252.835 53.550,252.652 53.424,252.525 52.326 C 252.448 51.649,252.220 51.197,252.020 51.321 C 251.820 51.445,251.422 51.264,251.136 50.919 C 250.711 50.407,250.783 50.336,251.530 50.531 C 252.064 50.671,252.444 50.556,252.444 50.256 C 252.444 49.937,251.784 49.781,250.701 49.845 C 249.346 49.925,248.970 50.122,249.016 50.729 C 249.054 51.234,249.244 51.370,249.553 51.113 C 249.865 50.854,250.032 50.999,250.032 51.530 C 250.032 52.010,249.798 52.254,249.460 52.124 C 249.141 52.002,248.889 52.220,248.889 52.619 C 248.889 53.012,248.577 53.333,248.196 53.333 C 247.760 53.333,247.627 53.539,247.837 53.889 C 248.064 54.266,247.930 54.249,247.419 53.834 C 246.773 53.311,246.667 53.323,246.667 53.919 C 246.667 54.302,246.435 54.757,246.152 54.932 C 245.800 55.150,245.717 54.948,245.888 54.292 C 246.026 53.765,245.939 53.333,245.695 53.333 C 245.444 53.333,245.293 54.345,245.347 55.667 C 245.400 56.950,245.419 58.450,245.388 59.000 L 245.333 60.000 232.693 60.000 C 225.741 60.000,219.945 60.173,219.815 60.385 C 219.684 60.597,219.076 60.674,218.463 60.557 C 216.394 60.161,215.294 60.725,215.313 62.171 C 215.327 63.256,215.441 63.393,215.971 62.963 C 216.485 62.547,216.559 62.583,216.348 63.148 C 216.192 63.566,216.321 63.852,216.667 63.852 C 217.003 63.852,217.140 63.569,216.992 63.182 C 216.796 62.672,216.937 62.590,217.584 62.838 C 218.052 63.018,223.687 63.147,230.106 63.125 L 241.778 63.086 241.851 64.543 C 242.069 68.908,241.419 71.936,240.399 71.305 C 240.185 71.173,240.142 71.408,240.303 71.828 C 240.500 72.342,240.428 72.486,240.081 72.272 C 239.734 72.058,239.661 72.203,239.858 72.716 C 240.020 73.139,239.969 73.366,239.742 73.225 C 239.498 73.074,239.423 74.748,239.556 77.375 C 239.678 79.798,239.628 81.779,239.444 81.779 C 239.261 81.778,239.111 84.965,239.111 88.862 L 239.111 95.945 237.000 95.711 C 235.839 95.583,234.189 95.393,233.333 95.289 C 232.478 95.186,230.578 95.024,229.111 94.930 C 223.070 94.541,220.706 94.202,220.381 93.675 C 220.107 93.232,219.925 93.231,219.485 93.670 C 219.182 93.974,218.623 94.219,218.244 94.215 C 217.637 94.209,217.635 94.157,218.222 93.778 C 218.814 93.396,216.893 93.052,215.444 93.281 C 215.261 93.310,215.111 93.112,215.111 92.841 C 215.111 92.571,214.795 92.471,214.408 92.619 C 213.582 92.936,211.854 91.865,212.336 91.334 C 212.518 91.133,212.336 91.088,211.931 91.232 C 211.359 91.437,211.223 91.253,211.316 90.403 C 211.382 89.802,211.213 89.166,210.940 88.989 C 210.604 88.770,210.440 85.813,210.431 79.778 C 210.423 74.889,210.242 70.108,210.028 69.153 C 209.796 68.117,209.802 67.518,210.043 67.667 C 210.282 67.815,210.316 66.620,210.126 64.736 C 209.949 62.987,209.809 60.506,209.814 59.222 C 209.819 57.939,209.622 56.889,209.377 56.889 C 209.131 56.889,208.932 56.039,208.935 55.000 C 208.947 50.478,208.898 49.778,208.569 49.777 C 208.378 49.777,208.211 48.640,208.197 47.250 C 208.183 45.861,207.962 44.654,207.706 44.569 C 207.450 44.483,207.340 43.891,207.462 43.252 C 207.623 42.410,207.534 42.183,207.139 42.427 C 206.776 42.652,206.623 42.488,206.682 41.937 C 206.730 41.483,206.723 40.911,206.667 40.667 C 206.610 40.422,206.518 40.022,206.461 39.778 C 206.404 39.533,206.327 38.459,206.290 37.390 C 206.231 35.704,206.133 35.521,205.545 36.008 C 204.979 36.478,204.914 36.451,205.148 35.841 C 205.309 35.421,205.208 35.111,204.910 35.111 C 204.625 35.111,204.516 34.911,204.667 34.667 C 204.818 34.422,204.680 34.219,204.360 34.215 C 203.896 34.210,203.900 34.131,204.381 33.827 C 204.808 33.556,204.838 33.355,204.485 33.136 C 204.210 32.966,204.101 32.641,204.241 32.414 C 204.382 32.186,204.085 32.000,203.582 32.000 C 202.909 32.000,202.667 31.714,202.667 30.920 C 202.667 30.141,202.388 29.797,201.667 29.687 C 201.117 29.603,200.702 29.332,200.746 29.085 C 200.883 28.310,199.025 28.595,198.504 29.429 M161.262 148.507 C 162.368 148.465,163.393 148.626,163.540 148.863 C 163.687 149.101,165.000 149.389,166.459 149.504 C 170.226 149.800,173.481 150.294,174.000 150.649 C 174.244 150.817,175.117 150.994,175.938 151.043 C 176.760 151.092,177.829 151.345,178.313 151.604 C 178.798 151.863,179.675 151.955,180.264 151.807 C 180.923 151.642,181.333 151.732,181.333 152.043 C 181.333 152.344,181.727 152.445,182.310 152.293 C 182.847 152.152,183.504 152.217,183.768 152.437 C 184.033 152.656,185.343 152.878,186.680 152.930 C 188.017 152.981,189.311 153.167,189.556 153.342 C 190.212 153.813,195.997 154.818,196.301 154.514 C 196.444 154.371,196.940 154.456,197.403 154.704 C 198.680 155.387,201.451 155.661,201.084 155.067 C 200.865 154.713,201.029 154.710,201.677 155.057 C 202.374 155.430,202.702 155.382,203.151 154.841 C 203.536 154.376,204.142 154.228,204.975 154.395 C 205.704 154.541,206.222 154.452,206.222 154.181 C 206.222 153.926,206.601 153.838,207.064 153.985 C 207.528 154.132,208.678 153.963,209.620 153.609 C 210.562 153.255,211.633 152.942,212.000 152.915 C 215.475 152.655,221.301 151.736,221.643 151.394 C 221.767 151.270,222.349 151.350,222.935 151.573 C 223.557 151.810,224.000 151.812,224.000 151.580 C 224.000 151.117,225.673 150.703,228.676 150.422 C 229.843 150.312,231.018 150.046,231.287 149.830 C 231.557 149.614,232.864 149.417,234.192 149.392 C 235.520 149.366,236.720 149.193,236.859 149.006 C 237.304 148.406,241.351 148.397,241.920 148.994 C 242.260 149.352,242.453 151.088,242.449 153.778 C 242.447 156.100,242.586 160.768,242.759 164.150 C 243.034 169.512,242.991 170.231,242.426 169.762 C 242.039 169.441,241.778 169.407,241.778 169.679 C 241.778 169.929,241.190 170.093,240.472 170.043 C 239.754 169.994,239.259 170.101,239.371 170.282 C 239.483 170.464,239.250 170.793,238.854 171.015 C 237.524 171.760,237.228 184.782,238.520 185.730 C 238.723 185.878,238.889 186.600,238.889 187.333 C 238.889 188.067,239.138 189.167,239.442 189.778 C 240.111 191.123,240.154 191.703,239.556 191.333 C 239.311 191.182,239.111 191.261,239.111 191.507 C 239.111 191.754,239.436 192.138,239.833 192.360 C 240.231 192.582,240.556 193.292,240.556 193.938 C 240.556 194.637,240.802 195.111,241.167 195.111 C 241.503 195.111,241.778 195.411,241.778 195.778 C 241.778 196.144,242.053 196.444,242.390 196.444 C 242.727 196.444,243.246 196.738,243.544 197.097 C 243.842 197.456,244.307 197.706,244.577 197.652 C 244.848 197.599,245.098 197.856,245.134 198.222 C 245.169 198.589,245.250 199.089,245.313 199.333 C 245.377 199.578,245.399 201.278,245.362 203.111 C 245.318 205.342,245.436 206.237,245.718 205.817 C 246.001 205.397,246.119 206.278,246.074 208.484 C 245.977 213.264,246.654 224.088,247.128 225.333 C 247.307 225.805,247.655 237.959,247.541 239.778 C 247.510 240.267,247.388 240.427,247.269 240.133 C 247.115 239.755,246.730 239.723,245.941 240.022 C 243.943 240.782,153.282 240.545,152.267 239.778 C 151.579 239.256,151.525 239.017,151.976 238.474 C 152.318 238.061,152.474 236.832,152.385 235.237 C 152.306 233.824,152.398 232.419,152.589 232.115 C 152.915 231.598,152.996 229.685,153.022 221.889 C 153.028 220.117,153.211 218.667,153.429 218.667 C 153.646 218.667,153.809 217.417,153.789 215.889 C 153.769 214.361,153.966 210.611,154.225 207.556 C 154.485 204.500,154.585 201.542,154.447 200.982 C 154.170 199.857,155.188 198.037,155.803 198.558 C 156.017 198.740,155.957 198.577,155.668 198.196 C 155.044 197.372,156.338 196.000,157.739 196.000 C 158.642 196.000,159.772 193.599,159.259 192.769 C 159.094 192.501,159.189 192.440,159.487 192.624 C 159.825 192.833,160.000 192.544,160.000 191.778 C 160.000 191.045,160.181 190.726,160.489 190.916 C 160.812 191.116,160.797 190.882,160.444 190.222 C 160.151 189.674,160.109 189.348,160.351 189.498 C 160.802 189.777,161.577 186.762,161.161 186.346 C 161.035 186.220,161.229 185.819,161.592 185.456 C 162.074 184.973,162.124 184.639,161.775 184.218 C 161.430 183.804,161.440 183.594,161.809 183.471 C 162.452 183.257,162.626 174.301,162.006 173.333 C 161.771 172.967,161.554 172.467,161.524 172.222 C 161.494 171.978,161.438 171.560,161.401 171.294 C 161.313 170.663,159.351 169.778,158.041 169.778 C 156.905 169.778,155.928 165.483,156.925 164.867 C 157.178 164.710,157.353 163.501,157.315 162.180 C 157.143 156.258,158.019 147.822,158.759 148.279 C 159.030 148.446,160.156 148.549,161.262 148.507 " stroke="none" fill="#000000" fill-rule="evenodd"></path></g></svg>